<?xml version="1.0" encoding="UTF-8"?>
<svg width="450px" height="450px" viewBox="0 0 450 450" version="1.1" xmlns="http://www.w3.org/2000/svg" xmlns:xlink="http://www.w3.org/1999/xlink">
    <!-- Generator: Sketch 50.2 (55047) - http://www.bohemiancoding.com/sketch -->
    <title>Artboard</title>
    <desc>Created with Sketch.</desc>
    <defs></defs>
    <g id="Artboard" stroke="none" stroke-width="1" fill="none" fill-rule="evenodd">
        <path d="M178.5,135.5 L288.504545,135.5" id="Line" stroke="#FF0F0F" stroke-width="5" stroke-linecap="square"></path>
        <path d="M160.5,158.5 L261.5,158.5" id="Line" stroke="#FF0F0F" stroke-width="5" stroke-linecap="square"></path>
        <path d="M145.5,308.5 L283.5,308.5" id="Line" stroke="#FF0F0F" stroke-width="5" stroke-linecap="square"></path>
        <path d="M160.5,168.5 L261.5,168.5" id="Line" stroke="#FF0F0F" stroke-width="5" stroke-linecap="square"></path>
        <path d="M217.5,229.5 L261.5,229.5" id="Line" stroke="#FF0F0F" stroke-width="5" stroke-linecap="square"></path>
        <path d="M199.5,239.5 L208.5,239.5" id="Line" stroke="#FF0F0F" stroke-width="5" stroke-linecap="square"></path>
        <path d="M155.5,239.5 L162.5,239.5" id="Line" stroke="#FF0F0F" stroke-width="5" stroke-linecap="square"></path>
        <path d="M155.5,235.5 L261.5,235.5" id="Line" stroke="#FF0F0F" stroke-width="5" stroke-linecap="square"></path>
        <path d="M288.504545,235.519907 L288.504545,135.5" id="Line" stroke="#FF0F0F" stroke-width="5" stroke-linecap="square"></path>
        <path d="M265.504545,235.506552 L265.504545,158.5" id="Line" stroke="#FF0F0F" stroke-width="5" stroke-linecap="square"></path>
        <path d="M222.504545,219.5 L222.504545,196.485166" id="Line" stroke="#FF0F0F" stroke-width="5" stroke-linecap="square"></path>
        <path d="M140.504545,219.5 L140.504545,196.485166" id="Line" stroke="#FF0F0F" stroke-width="5" stroke-linecap="square"></path>
        <path d="M217.504545,185.499998 L217.504545,191.485166" id="Line" stroke="#FF0F0F" stroke-width="5" stroke-linecap="square"></path>
        <path d="M212.504545,234.499998 L212.504545,235.50001" id="Line" stroke="#FF0F0F" stroke-width="5" stroke-linecap="square"></path>
        <path d="M145.504545,185.499998 L145.504545,191.485166" id="Line" stroke="#FF0F0F" stroke-width="5" stroke-linecap="square"></path>
        <path d="M217.504545,224.499998 L217.504545,229.5" id="Line" stroke="#FF0F0F" stroke-width="5" stroke-linecap="square"></path>
        <path d="M221.504545,234.499998 L221.504545,235.50001" id="Line" stroke="#FF0F0F" stroke-width="5" stroke-linecap="square"></path>
        <path d="M145.504545,224.499998 L145.504545,229.5" id="Line" stroke="#FF0F0F" stroke-width="5" stroke-linecap="square"></path>
        <path d="M195.49999,174.485166 L206.504545,174.485166" id="Line" stroke="#FF0F0F" stroke-width="7" stroke-linecap="square"></path>
        <path d="M168.499996,245.485166 L193.504545,245.485166" id="Line" stroke="#FF0F0F" stroke-width="7" stroke-linecap="square"></path>
        <path d="M157.49999,174.485166 L168.504545,174.485166" id="Line" stroke="#FF0F0F" stroke-width="7" stroke-linecap="square"></path>
        <path d="M150.504545,180.500681 L150.504545,180.485166" id="Line" stroke="#FF0F0F" stroke-width="5" stroke-linecap="square"></path>
        <path d="M150.504545,235.50001 L150.504545,234.485166" id="Line" stroke="#FF0F0F" stroke-width="5" stroke-linecap="square"></path>
        <path d="M212.504545,180.500681 L212.504545,180.485166" id="Line" stroke="#FF0F0F" stroke-width="5" stroke-linecap="square"></path>
        <path d="M233.5,246.5 L271.5,246.5" id="Line" stroke="#FF0F0F" stroke-width="5" stroke-linecap="square"></path>
        <path d="M156.5,246.5 L162.5,246.5" id="Line" stroke="#FF0F0F" stroke-width="5" stroke-linecap="square"></path>
        <path d="M162.5,280.5 L167.5,280.5" id="Line" stroke="#FF0F0F" stroke-width="6" stroke-linecap="square"></path>
        <path d="M250.5,263.5 L283.5,263.5" id="Line" stroke="#FF0F0F" stroke-width="5" stroke-linecap="square"></path>
        <path d="M145.5,263.5 L211.507575,263.5" id="Line" stroke="#FF0F0F" stroke-width="5" stroke-linecap="square"></path>
        <path d="M155.504545,235.506552 L155.504545,158.5" id="Line" stroke="#FF0F0F" stroke-width="5" stroke-linecap="square"></path>
        <path d="M306.504545,284.5 L306.504545,240.5" id="Line" stroke="#FF0F0F" stroke-width="5" stroke-linecap="square"></path>
        <path d="M280.5,240.5 L306.010335,240.5" id="Line" stroke="#FF0F0F" stroke-width="5" stroke-linecap="square"></path>
        <rect id="Rectangle-3" fill="#FF0F0F" x="170" y="138" width="6" height="6"></rect>
        <rect id="Rectangle-3" fill="#FF0F0F" x="164" y="144" width="6" height="6"></rect>
        <rect id="Rectangle-3" fill="#FF0F0F" x="158" y="150" width="6" height="6"></rect>
        <rect id="Rectangle-3" fill="#FF0F0F" x="280" y="138" width="6" height="6"></rect>
        <rect id="Rectangle-3" fill="#FF0F0F" x="274" y="156" width="6" height="89"></rect>
        <rect id="Rectangle-3" fill="#FF0F0F" x="268" y="150" width="6" height="6"></rect>
        <rect id="Rectangle-3" fill="#FF0F0F" x="274" y="144" width="6" height="6"></rect>
        <rect id="Rectangle-3" fill="#FF0F0F" x="280" y="150" width="6" height="6"></rect>
        <rect id="Rectangle-3" fill="#FF0F0F" x="298" y="243" width="6" height="6"></rect>
        <rect id="Rectangle-3" fill="#FF0F0F" x="292" y="249" width="6" height="6"></rect>
        <rect id="Rectangle-3" fill="#FF0F0F" x="286" y="255" width="6" height="6"></rect>
        <rect id="Rectangle-3" fill="#FF0F0F" x="149" y="249" width="6" height="6"></rect>
        <rect id="Rectangle-3" fill="#FF0F0F" x="143" y="255" width="6" height="6"></rect>
        <rect id="Rectangle-3" fill="#FF0F0F" x="137" y="261" width="6" height="45"></rect>
        <rect id="Rectangle-3" fill="#FF0F0F" x="280" y="264" width="6" height="42"></rect>
        <rect id="Rectangle-3" fill="#FF0F0F" x="242" y="255" width="6" height="6"></rect>
        <rect id="Rectangle-3" fill="#FF0F0F" x="258" y="271" width="6" height="5"></rect>
        <rect id="Rectangle-3" fill="#FF0F0F" x="270" y="282" width="5" height="6"></rect>
        <rect id="Rectangle-3" fill="#FF0F0F" x="275" y="288" width="6" height="18"></rect>
        <rect id="Rectangle-3" fill="#FF0F0F" x="264" y="276" width="11" height="6"></rect>
        <rect id="Rectangle-3" fill="#FF0F0F" x="253" y="266" width="5" height="5"></rect>
        <rect id="Rectangle-3" fill="#FF0F0F" x="220" y="266" width="5" height="5"></rect>
        <rect id="Rectangle-3" fill="#FF0F0F" x="209" y="260" width="5" height="5"></rect>
        <rect id="Rectangle-3" fill="#FF0F0F" x="225" y="271" width="6" height="5"></rect>
        <rect id="Rectangle-3" fill="#FF0F0F" x="220" y="276" width="16" height="6"></rect>
        <rect id="Rectangle-3" fill="#FF0F0F" x="236" y="282" width="6" height="6"></rect>
        <rect id="Rectangle-3" fill="#FF0F0F" x="242" y="288" width="6" height="6"></rect>
        <rect id="Rectangle-3" fill="#FF0F0F" x="248" y="294" width="5" height="5"></rect>
        <rect id="Rectangle-3" fill="#FF0F0F" x="253" y="299" width="11" height="7"></rect>
        <rect id="Rectangle-3" fill="#FF0F0F" x="236" y="249" width="6" height="6"></rect>
        <rect id="Rectangle-3" fill="#FF0F0F" x="197" y="249" width="7" height="6"></rect>
        <rect id="Rectangle-3" fill="#FF0F0F" x="204" y="255" width="10" height="5"></rect>
        <rect id="Rectangle-3" fill="#FF0F0F" x="214" y="261" width="6" height="5"></rect>
        <rect id="Rectangle-3" fill="#FF0F0F" x="298" y="287" width="6" height="6"></rect>
        <rect id="Rectangle-3" fill="#FF0F0F" x="292" y="293" width="6" height="6"></rect>
        <rect id="Rectangle-3" fill="#FF0F0F" x="286" y="299" width="6" height="6"></rect>
        <rect id="Rectangle-3" fill="#FF0F0F" x="225" y="238" width="6" height="6"></rect>
        <rect id="Rectangle-3" fill="#FF0F0F" x="219" y="244" width="6" height="6"></rect>
        <rect id="Rectangle-3" fill="#FF0F0F" x="214" y="250" width="5" height="5"></rect>
        <rect id="Rectangle-3" fill="#FF0F0F" x="274" y="244" width="6" height="5"></rect>
    </g>
</svg>