<?xml version="1.0" encoding="UTF-8"?>
<svg width="450px" height="450px" viewBox="0 0 450 450" version="1.1" xmlns="http://www.w3.org/2000/svg" xmlns:xlink="http://www.w3.org/1999/xlink">
    <!-- Generator: Sketch 50.2 (55047) - http://www.bohemiancoding.com/sketch -->
    <title>Artboard</title>
    <desc>Created with Sketch.</desc>
    <defs></defs>
    <g id="Artboard" stroke="none" stroke-width="1" fill="none" fill-rule="evenodd">
        <path d="M224.643081,383.894612 C300.159457,383.894612 314.26266,350.514098 336.555835,329.841137 C361.165799,307.019764 407,278.52308 407,242.313249 C407,173.302392 335.179125,84.6471383 224.643081,84.6471383 C114.107038,84.6471383 84.1841222,165.986738 84.1841222,253.468582 C84.1841222,340.950426 155.632225,383.894612 224.643081,383.894612 Z" id="Oval" stroke="#FF0F0F"></path>
        <path d="M224.536894,377.338723 C298.854904,377.338723 317.926237,352.42375 339.865642,332.078847 C364.085072,309.619626 404,273.639327 404,238.004108 C404,170.088381 333.318847,82.6571703 224.536894,82.6571703 C115.754941,82.6571703 86.3068704,162.888818 86.3068704,248.982418 C86.3068704,335.076017 156.621167,377.338723 224.536894,377.338723 Z" id="Oval" stroke="#FF0F0F"></path>
        <path d="M226.553747,391.972472 C304.809285,391.972472 327.665163,350.549225 350.766965,329.126405 C376.269593,305.477246 398.89606,268.396234 398.89606,230.872984 C398.89606,159.358937 341.099201,80 226.553747,80 C112.008292,80 81,155.934047 81,246.58907 C81,337.244094 155.039699,391.972472 226.553747,391.972472 Z" id="Oval" stroke="#FF0F0F" stroke-width="4"></path>
        <path d="M61,50.1266579 C81.8319766,41.8586631 99.6370355,40.7847562 114.415177,46.9049373 C129.193318,53.0251183 137.854329,65.0596146 140.398209,83.0084262" id="Path-2" stroke="#FF0F0F" stroke-width="1.5" stroke-linecap="round"></path>
        <path d="M58,52.2299572 C62.6606746,48.6155302 66.4212453,46.3658397 69.2817123,45.4808857 C86.7338092,40.0816615 101.242509,44.4697959 113.104347,49.3822269 C127.882488,55.502408 136.929946,66.7275902 140.246722,83.0577736" id="Path-2" stroke="#FF0F0F" stroke-linecap="round"></path>
        <path d="M126,80.0794182 C129.880545,80.1672915 132.67851,80.4709402 134.393893,80.9903642 C136.109276,81.5097882 138.088911,82.6528128 140.332796,84.4194381 C140.768109,81.8054805 141.450878,79.4172081 142.381102,77.2546209 C143.311326,75.0920337 145.126181,71.6738267 147.825666,67" id="Path-3" stroke="#FF0F0F" stroke-width="2" stroke-linecap="round"></path>
        <path d="M125,78.0794182 C128.880545,78.1672915 131.67851,78.4709402 133.393893,78.9903642 C135.109276,79.5097882 137.088911,80.6528128 139.332796,82.4194381 C139.768109,79.8054805 140.450878,77.4172081 141.381102,75.2546209 C142.311326,73.0920337 144.126181,69.6738267 146.825666,65" id="Path-3" stroke="#FF0F0F" stroke-linecap="round"></path>
        <g id="Group" transform="translate(43.494897, 77.358601) rotate(15.000000) translate(-43.494897, -77.358601) translate(23.494897, 57.358601)" stroke="#FF0F0F" stroke-linecap="round">
            <path d="M3.48712238,36.8189593 C4.8639773,32.2236992 5.37073177,28.9695175 5.00738581,27.0564142 C4.64403985,25.143311 3.08288969,19.4558002 0.323935324,9.99388194 L9.65267856,17.7927696 L5.79135401,4.75083666 C10.3570935,8.94472208 13.9252317,12.0372317 16.4957684,14.0283656 C19.0663051,16.0194995 21.9018458,17.2743009 25.0023905,17.7927696" id="Path-4" stroke-width="2"></path>
            <path d="M6.40253126,39.0641332 C7.77938617,34.468873 8.28614065,31.2146913 7.92279469,29.3015881 C7.55944872,27.3884848 5.99829856,21.700974 3.2393442,12.2390558 L12.5680874,20.0379434 L8.70676288,6.99601048 C13.2725024,11.1898959 16.8406405,14.2824056 19.4111773,16.2735395 C21.981714,18.2646734 24.8172547,19.5194747 27.9177993,20.0379434" id="Path-4"></path>
            <path d="M24.818899,1.29851778 C22.2864565,0.649722569 20.3969848,0.867757351 19.1504837,1.95262212 C17.2807322,3.57991927 16.5834434,5.92136032 19.1504837,7.85986424 C21.717524,9.79836816 27.9952415,9.16150217 28.941779,8.13752665 C29.8883164,7.11355113 28.1749814,4.93926216 26.6411596,6.72479453 C25.1073378,8.51032691 24.6746807,12.130327 26.6411596,13.7847861 C28.6076385,15.4392452 32.6421986,15.4858713 35.032618,13.7847861 C36.626231,12.6507293 37.1349304,10.971053 36.5587162,8.74575729" id="Path-5" stroke-width="2"></path>
            <path d="M27.1497108,1.10908573 C24.6172683,0.460290521 22.7277965,0.678325302 21.4812954,1.76319007 C19.6115439,3.39048723 18.9142551,5.73192828 21.4812954,7.67043219 C24.0483358,9.60893611 30.3260533,8.97207012 31.2725907,7.9480946 C32.2191281,6.92411908 30.5057931,4.74983011 28.9719713,6.53536249 C27.4381496,8.32089486 27.0054924,11.940895 28.9719713,13.595354 C30.9384503,15.2498131 34.9730103,15.2964393 37.3634297,13.595354 C38.9570427,12.4612972 39.4657421,10.781621 38.8895279,8.55632524" id="Path-5"></path>
        </g>
    </g>
</svg>