<?xml version="1.0" encoding="UTF-8"?>
<svg width="450px" height="450px" viewBox="0 0 450 450" version="1.1" xmlns="http://www.w3.org/2000/svg" xmlns:xlink="http://www.w3.org/1999/xlink">
    <!-- Generator: Sketch 50.2 (55047) - http://www.bohemiancoding.com/sketch -->
    <title>Artboard</title>
    <desc>Created with Sketch.</desc>
    <defs></defs>
    <g id="Artboard" stroke="none" stroke-width="1" fill="none" fill-rule="evenodd">
        <path d="M127.5,316.5 L322.5,316.5" id="Line" stroke="#FF0F0F" stroke-width="5" stroke-linecap="square"></path>
        <path d="M134,321.5 L321,321.5" id="Line" stroke="#FF0F0F" stroke-width="8" stroke-linecap="square"></path>
        <path d="M112.5,201.5 L299.5,201.5" id="Line" stroke="#FF0F0F" stroke-width="5" stroke-linecap="square"></path>
        <path d="M240.5,165.5 L313.5,165.5" id="Line" stroke="#FF0F0F" stroke-width="5" stroke-linecap="square"></path>
        <path d="M156.5,135.5 L212.5,135.5" id="Line" stroke="#FF0F0F" stroke-width="7" stroke-linecap="square"></path>
        <path d="M126.5,164.5 L126.5,197.5" id="Line" stroke="#FF0F0F" stroke-width="5" stroke-linecap="square"></path>
        <path d="M327.5,176.5 L327.5,311.592561" id="Line" stroke="#FF0F0F" stroke-width="5" stroke-linecap="square"></path>
        <path d="M107.5,206.5 L107.5,237.5" id="Line" stroke="#FF0F0F" stroke-width="5" stroke-linecap="square"></path>
        <path d="M107.5,206.5 L107.5,237.5" id="Line" stroke="#FF0F0F" stroke-width="5" stroke-linecap="square"></path>
        <path d="M112.5,242.5 L112.5,266.5" id="Line" stroke="#FF0F0F" stroke-width="5" stroke-linecap="square"></path>
        <path d="M322.5,271.5 L322.5,295.5" id="Line" stroke="#FF0F0F" stroke-width="5" stroke-linecap="square"></path>
        <path d="M317.5,242.5 L317.5,266.5" id="Line" stroke="#FF0F0F" stroke-width="5" stroke-linecap="square"></path>
        <path d="M312.5,213.5 L312.5,237.5" id="Line" stroke="#FF0F0F" stroke-width="5" stroke-linecap="square"></path>
        <path d="M117.5,271.5 L117.5,295.5" id="Line" stroke="#FF0F0F" stroke-width="5" stroke-linecap="square"></path>
        <path d="M122.5,300.5 L122.5,311.5" id="Line" stroke="#FF0F0F" stroke-width="5" stroke-linecap="square"></path>
        <rect id="Rectangle-3" fill="#FF0F0F" x="147" y="139" width="6" height="6"></rect>
        <rect id="Rectangle-3" fill="#FF0F0F" x="216" y="139" width="6" height="6"></rect>
        <rect id="Rectangle-3" fill="#FF0F0F" x="222" y="145" width="6" height="6"></rect>
        <rect id="Rectangle-3" fill="#FF0F0F" x="316" y="168" width="9" height="6"></rect>
        <rect id="Rectangle-3" fill="#FF0F0F" x="302" y="204" width="8" height="7"></rect>
        <rect id="Rectangle-3" fill="#FF0F0F" x="228" y="151" width="6" height="6"></rect>
        <rect id="Rectangle-3" fill="#FF0F0F" x="234" y="157" width="4" height="6"></rect>
        <rect id="Rectangle-3" fill="#FF0F0F" x="141" y="145" width="6" height="5"></rect>
        <rect id="Rectangle-3" fill="#FF0F0F" x="135" y="150" width="6" height="6"></rect>
        <rect id="Rectangle-3" fill="#FF0F0F" x="129" y="156" width="6" height="6"></rect>
    </g>
</svg>