<?xml version="1.0" encoding="UTF-8"?>
<svg width="851px" height="382px" viewBox="0 0 851 382" version="1.1" xmlns="http://www.w3.org/2000/svg" xmlns:xlink="http://www.w3.org/1999/xlink">
    <!-- Generator: Sketch 50.2 (55047) - http://www.bohemiancoding.com/sketch -->
    <title>A4</title>
    <desc>Created with Sketch.</desc>
    <defs></defs>
    <g id="A4" stroke="none" stroke-width="1" fill="none" fill-rule="evenodd">
        <path d="M200.107114,159.104839 C198.010256,156.379019 195.048488,154.098799 191.221722,152.264113 C187.394957,150.429426 183.542038,149.512097 179.662851,149.512097 C177.356307,149.512097 175.049798,149.8004 172.743254,150.377016 C170.43671,150.953632 168.339884,151.844752 166.452712,153.050403 C164.56554,154.256054 163.01913,155.828619 161.813437,157.768145 C160.607744,159.707671 160.004906,162.040309 160.004906,164.766129 C160.004906,167.282271 160.529113,169.431443 161.577542,171.21371 C162.62597,172.995977 164.067539,174.516123 165.902289,175.774194 C167.73704,177.032264 169.964918,178.13306 172.585991,179.076613 C175.207063,180.020166 178.0902,180.963705 181.235486,181.907258 C184.800145,183.06049 188.495802,184.37096 192.322567,185.83871 C196.149333,187.306459 199.661517,189.245956 202.859226,191.657258 C206.056934,194.06856 208.677967,197.108853 210.722404,200.778226 C212.76684,204.447599 213.789043,209.008037 213.789043,214.459677 C213.789043,220.435514 212.688209,225.651187 210.486508,230.106855 C208.284808,234.562522 205.349251,238.25805 201.679749,241.193548 C198.010248,244.129047 193.711753,246.330638 188.784137,247.798387 C183.856521,249.266136 178.666876,250 173.215045,250 C165.980885,250 158.904096,248.66332 151.984464,245.989919 C145.064833,243.316519 139.403402,239.358897 135,234.116935 L149.15372,220.907258 C151.879636,224.68147 155.522872,227.669344 160.083538,229.870968 C164.644204,232.072592 169.12617,233.173387 173.529572,233.173387 C175.836116,233.173387 178.195046,232.885084 180.606432,232.308468 C183.017819,231.731852 185.193276,230.762104 187.13287,229.399194 C189.072463,228.036284 190.645083,226.332672 191.850777,224.288306 C193.05647,222.243941 193.659308,219.701628 193.659308,216.66129 C193.659308,213.725792 192.977839,211.288316 191.614881,209.34879 C190.251924,207.409264 188.4172,205.731862 186.110657,204.316532 C183.804113,202.901203 181.078239,201.66936 177.932952,200.620968 L168.025347,197.318548 C164.670375,196.270156 161.315452,195.012104 157.96048,193.544355 C154.605507,192.076606 151.591319,190.137109 148.917825,187.725806 C146.244331,185.314504 144.068874,182.35284 142.391387,178.840726 C140.713901,175.328611 139.87517,170.951639 139.87517,165.709677 C139.87517,160.048359 141.054635,155.173408 143.4136,151.084677 C145.772566,146.995947 148.865385,143.614933 152.69215,140.941532 C156.518916,138.268132 160.869831,136.276216 165.745026,134.965726 C170.620221,133.655235 175.573973,133 180.606432,133 C186.267949,133 192.008011,133.995958 197.826792,135.987903 C203.645573,137.979849 208.704167,140.967722 213.002725,144.951613 L200.107114,159.104839 Z M235.334151,135.830645 L257.036522,135.830645 L278.58163,217.604839 L278.896157,217.604839 L303.429272,135.830645 L323.873535,135.830645 L347.934859,217.604839 L348.249387,217.604839 L370.266285,135.830645 L391.339602,135.830645 L358.786045,247.169355 L339.599891,247.169355 L313.49414,163.665323 L313.179613,163.665323 L287.073862,247.169355 L267.887708,247.169355 L235.334151,135.830645 Z M417.602617,135.830645 L491.359226,135.830645 L491.359226,153.129032 L437.417825,153.129032 L437.417825,181.435484 L488.528482,181.435484 L488.528482,198.104839 L437.417825,198.104839 L437.417825,229.556452 L494.18997,229.556452 L494.18997,247.169355 L417.602617,247.169355 L417.602617,135.830645 Z M526.586263,135.830645 L600.342873,135.830645 C619.960122,210.056452 629.768746,247.169355 629.768746,247.169355 C629.768746,247.169355 611.050645,247.169355 611.050645,247.169355 C611.050645,247.169355 602.197116,215.822581 584.49006,153.129032 L546.401472,153.129032 L546.401472,181.435484 L584.49006,181.435484 L584.49006,198.104839 L546.401472,198.104839 L546.401472,229.556452 L598.550108,229.556452 L603.173617,247.169355 L526.586263,247.169355 L526.586263,135.830645 Z M658.058599,153.129032 L623.932407,153.129032 L623.932407,135.830645 L712,135.830645 L712,153.129032 L677.873808,153.129032 L677.873808,247.169355 L658.058599,247.169355 L658.058599,153.129032 Z" id="SWEET" stroke="#000000" fill="#000000"></path>
        <path d="M134,74.5 L134,307.5" id="Path-13" stroke="#2E3DFF"></path>
        <path d="M713,74.5 L713,307.5" id="Path-13" stroke="#FF8B8B"></path>
        <path d="M713,57 L713,17" id="Path-13" stroke="#054812"></path>
        <path d="M771,57 L771,17" id="Path-13" stroke="#C300CF"></path>
        <path d="M713,365 L713,325" id="Path-13" stroke="#FF96EA"></path>
        <path d="M771,365 L771,325" id="Path-13" stroke="#820068"></path>
        <path d="M134,57 L134,17" id="Path-13" stroke="#FF3333"></path>
        <path d="M79,57 L79,17" id="Path-13" stroke="#FFA2A2"></path>
        <path d="M134,365 L134,325" id="Path-13" stroke="#F8C600"></path>
        <path d="M80,365 L80,325" id="Path-13" stroke="#E800F8"></path>
        <path d="M771.503008,131.5 L78.4992785,131.5" id="Path-13" stroke="#FF1FD4"></path>
        <path d="M770.500724,250.5 L79.4992754,250.5" id="Path-13" stroke="#FF3333"></path>
        <rect id="Rectangle-2" stroke="#339CFF" stroke-width="2" x="79" y="75" width="692" height="232"></rect>
        <path d="M791,132 L831,132" id="Line-2" stroke="#2E3DFF" stroke-linecap="square"></path>
        <path d="M791,190 L831,190" id="Line-2" stroke="#2E3DFF" stroke-linecap="square"></path>
        <path d="M791,75 L831,75" id="Line-2" stroke="#85BC00" stroke-linecap="square"></path>
        <path d="M791,250 L831,250" id="Line-2" stroke="#F8C600" stroke-linecap="square"></path>
        <path d="M791,307 L831,307" id="Line-2" stroke="#837DFF" stroke-linecap="square"></path>
        <path d="M19,131 L59,131" id="Line-2" stroke="#FF6400" stroke-linecap="square"></path>
        <path d="M19,76 L59,76" id="Line-2" stroke="#009596" stroke-linecap="square"></path>
        <path d="M19,251 L59,251" id="Line-2" stroke="#0000A9" stroke-linecap="square"></path>
        <path d="M18,191 L58,191" id="Line-2" stroke="#11D800" stroke-linecap="square"></path>
        <path d="M19,305 L59,305" id="Line-2" stroke="#FF5500" stroke-linecap="square"></path>
        <text id="x-length" font-family="AvenirNext-Medium, Avenir Next" font-size="8" font-weight="400" letter-spacing="1" fill="#FF6868">
            <tspan x="792.884" y="162">x-lengt</tspan>
            <tspan x="825.444" y="162">h</tspan>
        </text>
        <text id="x-length" font-family="AvenirNext-Medium, Avenir Next" font-size="8" font-weight="400" letter-spacing="1" fill="#FFA53F">
            <tspan x="792.884" y="104">x-lengt</tspan>
            <tspan x="825.444" y="104">h</tspan>
        </text>
        <text id="x-length" font-family="AvenirNext-Medium, Avenir Next" font-size="8" font-weight="400" letter-spacing="1" fill="#77B8FF">
            <tspan x="792.884" y="220">x-lengt</tspan>
            <tspan x="825.444" y="220">h</tspan>
        </text>
        <text id="x-length" font-family="AvenirNext-Medium, Avenir Next" font-size="8" font-weight="400" letter-spacing="1" fill="#69BE7F">
            <tspan x="792.884" y="280">x-lengt</tspan>
            <tspan x="825.444" y="280">h</tspan>
        </text>
        <text id="x-length" font-family="AvenirNext-Medium, Avenir Next" font-size="8" font-weight="400" letter-spacing="1" fill="#FF6868">
            <tspan x="20.884" y="163">x-lengt</tspan>
            <tspan x="53.444" y="163">h</tspan>
        </text>
        <text id="x-length" font-family="AvenirNext-Medium, Avenir Next" font-size="8" font-weight="400" letter-spacing="1" fill="#FFA53F">
            <tspan x="20.884" y="106">x-lengt</tspan>
            <tspan x="53.444" y="106">h</tspan>
        </text>
        <text id="x-length" font-family="AvenirNext-Medium, Avenir Next" font-size="8" font-weight="400" letter-spacing="1" fill="#77B8FF">
            <tspan x="20.884" y="222">x-lengt</tspan>
            <tspan x="53.444" y="222">h</tspan>
        </text>
        <text id="x-length" font-family="AvenirNext-Medium, Avenir Next" font-size="8" font-weight="400" letter-spacing="1" fill="#69BE7F">
            <tspan x="20.884" y="281">x-lengt</tspan>
            <tspan x="53.444" y="281">h</tspan>
        </text>
        <text id="x-length" font-family="AvenirNext-Medium, Avenir Next" font-size="8" font-weight="400" letter-spacing="1" fill="#AB69BE">
            <tspan x="722.884" y="344">x-lengt</tspan>
            <tspan x="755.444" y="344">h</tspan>
        </text>
        <text id="x-length" font-family="AvenirNext-Medium, Avenir Next" font-size="8" font-weight="400" letter-spacing="1" fill="#AB69BE">
            <tspan x="722.884" y="39">x-lengt</tspan>
            <tspan x="755.444" y="39">h</tspan>
        </text>
        <text id="x-length" font-family="AvenirNext-Medium, Avenir Next" font-size="8" font-weight="400" letter-spacing="1" fill="#AB69BE">
            <tspan x="88.884" y="346">x-lengt</tspan>
            <tspan x="121.444" y="346">h</tspan>
        </text>
        <text id="x-length" font-family="AvenirNext-Medium, Avenir Next" font-size="8" font-weight="400" letter-spacing="1" fill="#AB69BE">
            <tspan x="88.884" y="41">x-lengt</tspan>
            <tspan x="121.444" y="41">h</tspan>
        </text>
    </g>
</svg>