<?xml version="1.0" encoding="UTF-8"?>
<svg width="450px" height="450px" viewBox="0 0 450 450" version="1.1" xmlns="http://www.w3.org/2000/svg" xmlns:xlink="http://www.w3.org/1999/xlink">
    <!-- Generator: Sketch 50.2 (55047) - http://www.bohemiancoding.com/sketch -->
    <title>Artboard</title>
    <desc>Created with Sketch.</desc>
    <defs></defs>
    <g id="Artboard" stroke="none" stroke-width="1" fill="none" fill-rule="evenodd">
        <rect id="Rectangle-3" fill="#FF0F0F" x="136" y="118" width="22" height="7"></rect>
        <rect id="Rectangle-3" fill="#FF0F0F" x="158" y="125" width="15" height="7"></rect>
        <rect id="Rectangle-3" fill="#FF0F0F" x="136" y="133" width="15" height="7"></rect>
        <rect id="Rectangle-3" fill="#FF0F0F" x="151" y="140" width="15" height="7"></rect>
        <rect id="Rectangle-3" fill="#FF0F0F" x="166" y="147" width="15" height="7"></rect>
        <rect id="Rectangle-3" fill="#FF0F0F" x="181" y="154" width="22" height="7"></rect>
        <rect id="Rectangle-3" fill="#FF0F0F" x="173" y="132" width="15" height="7"></rect>
        <rect id="Rectangle-3" fill="#FF0F0F" x="188" y="139" width="15" height="7"></rect>
        <rect id="Rectangle-3" fill="#FF0F0F" x="208" y="178" width="16" height="7"></rect>
        <rect id="Rectangle-3" fill="#FF0F0F" x="184" y="185" width="16" height="7"></rect>
        <rect id="Rectangle-3" fill="#FF0F0F" x="184" y="171" width="19" height="7"></rect>
        <rect id="Rectangle-3" fill="#FF0F0F" x="196" y="160" width="7" height="18"></rect>
        <rect id="Rectangle-3" fill="#FF0F0F" x="200" y="192" width="16" height="7"></rect>
        <rect id="Rectangle-3" fill="#FF0F0F" x="216" y="199" width="16" height="7"></rect>
        <rect id="Rectangle-3" fill="#FF0F0F" x="224" y="185" width="16" height="7"></rect>
        <rect id="Rectangle-3" fill="#FF0F0F" x="264" y="209" width="16" height="7"></rect>
        <rect id="Rectangle-3" fill="#FF0F0F" x="271" y="202" width="16" height="7"></rect>
        <rect id="Rectangle-3" fill="#FF0F0F" x="280" y="216" width="7" height="7"></rect>
        <rect id="Rectangle-3" fill="#FF0F0F" x="287" y="209" width="7" height="7"></rect>
        <rect id="Rectangle-3" fill="#FF0F0F" x="294" y="216" width="7" height="7"></rect>
        <rect id="Rectangle-3" fill="#FF0F0F" x="287" y="223" width="7" height="7"></rect>
        <rect id="Rectangle-3" fill="#FF0F0F" x="294" y="230" width="7" height="7"></rect>
        <rect id="Rectangle-3" fill="#FF0F0F" x="301" y="237" width="7" height="7"></rect>
        <rect id="Rectangle-3" fill="#FF0F0F" x="308" y="244" width="7" height="7"></rect>
        <rect id="Rectangle-3" fill="#FF0F0F" x="273" y="216" width="7" height="7"></rect>
        <rect id="Rectangle-3" fill="#FF0F0F" x="280" y="223" width="7" height="7"></rect>
        <rect id="Rectangle-3" fill="#FF0F0F" x="287" y="230" width="7" height="7"></rect>
        <rect id="Rectangle-3" fill="#FF0F0F" x="294" y="237" width="7" height="7"></rect>
        <rect id="Rectangle-3" fill="#FF0F0F" x="301" y="244" width="7" height="7"></rect>
        <rect id="Rectangle-3" fill="#FF0F0F" x="301" y="223" width="7" height="7"></rect>
        <rect id="Rectangle-3" fill="#FF0F0F" x="308" y="230" width="7" height="7"></rect>
        <rect id="Rectangle-3" fill="#FF0F0F" x="315" y="237" width="7" height="7"></rect>
        <rect id="Rectangle-3" fill="#FF0F0F" x="236" y="127" width="16" height="7"></rect>
        <rect id="Rectangle-3" fill="#FF0F0F" x="245" y="134" width="14" height="7"></rect>
        <rect id="Rectangle-3" fill="#FF0F0F" x="243" y="120" width="16" height="7"></rect>
        <rect id="Rectangle-3" fill="#FF0F0F" x="259" y="127" width="7" height="7"></rect>
        <rect id="Rectangle-3" fill="#FF0F0F" x="266" y="134" width="7" height="7"></rect>
        <rect id="Rectangle-3" fill="#FF0F0F" x="259" y="141" width="7" height="7"></rect>
        <rect id="Rectangle-3" fill="#FF0F0F" x="266" y="148" width="7" height="7"></rect>
        <rect id="Rectangle-3" fill="#FF0F0F" x="273" y="155" width="7" height="7"></rect>
        <rect id="Rectangle-3" fill="#FF0F0F" x="280" y="162" width="7" height="7"></rect>
        <rect id="Rectangle-3" fill="#FF0F0F" x="252" y="141" width="7" height="7"></rect>
        <rect id="Rectangle-3" fill="#FF0F0F" x="259" y="148" width="7" height="7"></rect>
        <rect id="Rectangle-3" fill="#FF0F0F" x="266" y="155" width="7" height="7"></rect>
        <rect id="Rectangle-3" fill="#FF0F0F" x="273" y="162" width="7" height="7"></rect>
        <rect id="Rectangle-3" fill="#FF0F0F" x="273" y="141" width="7" height="7"></rect>
        <rect id="Rectangle-3" fill="#FF0F0F" x="280" y="148" width="7" height="7"></rect>
        <rect id="Rectangle-3" fill="#FF0F0F" x="287" y="155" width="7" height="7"></rect>
        <rect id="Rectangle-3" fill="#FF0F0F" x="287" y="169" width="7" height="7"></rect>
        <rect id="Rectangle-3" fill="#FF0F0F" x="280" y="169" width="7" height="7"></rect>
        <rect id="Rectangle-3" fill="#FF0F0F" x="294" y="162" width="7" height="7"></rect>
        <rect id="Rectangle-3" fill="#FF0F0F" x="294" y="176" width="7" height="7"></rect>
        <rect id="Rectangle-3" fill="#FF0F0F" x="287" y="176" width="7" height="7"></rect>
        <rect id="Rectangle-3" fill="#FF0F0F" x="301" y="169" width="7" height="7"></rect>
        <rect id="Rectangle-3" fill="#FF0F0F" x="240" y="239" width="16" height="7"></rect>
        <rect id="Rectangle-3" fill="#FF0F0F" x="256" y="246" width="16" height="7"></rect>
        <rect id="Rectangle-3" fill="#FF0F0F" x="256" y="319" width="16" height="7"></rect>
        <rect id="Rectangle-3" fill="#FF0F0F" x="241" y="326" width="16" height="7"></rect>
        <rect id="Rectangle-3" fill="#FF0F0F" x="225" y="319" width="16" height="7"></rect>
        <rect id="Rectangle-3" fill="#FF0F0F" x="209" y="312" width="16" height="7"></rect>
        <rect id="Rectangle-3" fill="#FF0F0F" x="193" y="305" width="16" height="7"></rect>
        <rect id="Rectangle-3" fill="#FF0F0F" x="177" y="298" width="16" height="7"></rect>
        <rect id="Rectangle-3" fill="#FF0F0F" x="177" y="275" width="16" height="7"></rect>
        <rect id="Rectangle-3" fill="#FF0F0F" x="178" y="232" width="16" height="7"></rect>
        <rect id="Rectangle-3" fill="#FF0F0F" x="194" y="239" width="16" height="7"></rect>
        <rect id="Rectangle-3" fill="#FF0F0F" x="210" y="246" width="16" height="7"></rect>
        <rect id="Rectangle-3" fill="#FF0F0F" x="193" y="282" width="16" height="7"></rect>
        <rect id="Rectangle-3" fill="#FF0F0F" x="209" y="289" width="16" height="7"></rect>
        <rect id="Rectangle-3" fill="#FF0F0F" x="226" y="296" width="30" height="7"></rect>
        <rect id="Rectangle-3" fill="#FF0F0F" x="249" y="260" width="23" height="7"></rect>
        <rect id="Rectangle-3" fill="#FF0F0F" x="226" y="253" width="23" height="7"></rect>
        <rect id="Rectangle-3" fill="#FF0F0F" x="225" y="289" width="16" height="7"></rect>
        <rect id="Rectangle-3" fill="#FF0F0F" x="226" y="258" width="8" height="38"></rect>
        <rect id="Rectangle-3" fill="#FF0F0F" x="233" y="246" width="8" height="7"></rect>
        <rect id="Rectangle-3" fill="#FF0F0F" x="256" y="267" width="16" height="29"></rect>
        <rect id="Rectangle-3" fill="#FF0F0F" x="161" y="291" width="16" height="7"></rect>
        <rect id="Rectangle-3" fill="#FF0F0F" x="145" y="284" width="16" height="7"></rect>
        <rect id="Rectangle-3" fill="#FF0F0F" x="129" y="277" width="16" height="7"></rect>
        <rect id="Rectangle-3" fill="#FF0F0F" x="177" y="178" width="7" height="97"></rect>
        <rect id="Rectangle-3" fill="#FF0F0F" x="129" y="125" width="7" height="152"></rect>
        <rect id="Rectangle-3" fill="#FF0F0F" x="272" y="253" width="7" height="66"></rect>
        <rect id="Rectangle-3" fill="#FF0F0F" x="240" y="192" width="7" height="47"></rect>
        <rect id="Rectangle-3" fill="#FF0F0F" x="203" y="146" width="12" height="32"></rect>
        <rect id="Rectangle-3" fill="#FF0F0F" x="226" y="199" width="14" height="47"></rect>
    </g>
</svg>